<svg viewBox="0 0 1000 1000" xmlns="http://www.w3.org/2000/svg"><path d="M848.87 155.97a327.78 327.78 0 00-17.53 3.35 296.18 296.18 0 00-17.79 4.53 272.88 272.88 0 00-25.21 8.66 251.43 251.43 0 00-23.6 10.94 244.85 244.85 0 00-29.2 18.2 258.12 258.12 0 00-20.44 16.38 285.98 285.98 0 00-13 12.25 314.34 314.34 0 00-12.58 13.32 351.83 351.83 0 00-12.18 14.4 400.03 400.03 0 00-11.84 15.5 460.8 460.8 0 00-11.54 16.6 537.42 537.42 0 00-11.3 17.72 719.52 719.52 0 00-16.59 28.67 860.47 860.47 0 00-10.88 20.53c-3.62 7.04-7.22 14.27-10.81 21.69-3.6 7.41-7.18 15.03-10.77 22.83-3.6 7.8-7.18 15.81-10.79 24-3.6 8.2-7.21 16.6-10.84 25.19s-7.28 17.38-10.95 26.36a4101.7 4101.7 0 00-22.42 56.33 6667.5 6667.5 0 00-23.41 61.2 721.23 721.23 0 01-12.42 30.7 654.79 654.79 0 01-13.15 28.52 597.3 597.3 0 01-13.82 26.4 548 548 0 01-14.42 24.36 505.64 505.64 0 01-14.93 22.4 470 470 0 01-15.37 20.54 440.25 440.25 0 01-23.73 27.47 404.72 404.72 0 01-24.3 23.7 378.77 378.77 0 01-24.64 20.2 360.93 360.93 0 01-32.92 21.96 346.97 346.97 0 01-40.44 20.36 340.35 340.35 0 01-87.14 23.83c-.24.04-.46.05-.7.08A490 490 0 00500 990a490 490 0 00490-490 490 490 0 00-141.13-344.03z"/><path d="M69.45 266.54A490 490 0 0010 500a490 490 0 00187.22 385.14c.24-.03.46-.04.7-.08a337.91 337.91 0 0063.71-14.92 340.07 340.07 0 0063.87-29.27 348.99 348.99 0 0032.92-21.97 366.55 366.55 0 0024.63-20.2 386.8 386.8 0 0024.3-23.7 415.45 415.45 0 0023.74-27.46 454.8 454.8 0 0015.37-20.53 486.92 486.92 0 0014.93-22.41 526.14 526.14 0 0014.42-24.37c1.2-2.17 2.4-4.43 3.59-6.65a415.87 415.87 0 01-27.05-1.06 415.87 415.87 0 01-32.43-3.84 415.87 415.87 0 01-32.02-6.37 415.87 415.87 0 01-31.43-8.86 415.87 415.87 0 01-30.63-11.3 415.87 415.87 0 01-29.66-13.67 415.87 415.87 0 01-28.49-15.96 415.87 415.87 0 01-27.15-18.14 415.87 415.87 0 01-25.64-20.21A415.87 415.87 0 01190.92 552a415.87 415.87 0 01-22.17-23.98 415.87 415.87 0 01-20.21-25.64 415.87 415.87 0 01-18.14-27.15 415.87 415.87 0 01-15.96-28.5 415.87 415.87 0 01-13.67-29.65 415.87 415.87 0 01-11.3-30.63 415.87 415.87 0 01-8.86-31.43A415.87 415.87 0 0174.24 323a415.87 415.87 0 01-3.84-32.42 415.87 415.87 0 01-.95-24.03z" fill="#9c59d1"/><path d="M252.12 77.58A490 490 0 0069.45 266.54a415.87 415.87 0 00.95 24.03 415.87 415.87 0 003.84 32.42 415.87 415.87 0 006.37 32.03 415.87 415.87 0 008.86 31.43 415.87 415.87 0 0011.3 30.63 415.87 415.87 0 0013.67 29.66 415.87 415.87 0 0015.96 28.49 415.87 415.87 0 0018.14 27.15 415.87 415.87 0 0020.21 25.64A415.87 415.87 0 00190.92 552a415.87 415.87 0 0023.98 22.17 415.87 415.87 0 0025.64 20.21 415.87 415.87 0 0027.15 18.14 415.87 415.87 0 0028.5 15.96 415.87 415.87 0 0029.65 13.67 415.87 415.87 0 0030.63 11.3 415.87 415.87 0 0031.43 8.86 415.87 415.87 0 0032.02 6.37 415.87 415.87 0 0032.43 3.84 415.87 415.87 0 0027.05 1.06c1.13-2.1 2.28-4.15 3.4-6.29a597.6 597.6 0 0013.5-27.44 654.76 654.76 0 0012.79-29.6 720.5 720.5 0 006.1-15.63c8.02-21.22 15.8-41.61 23.42-61.2 3.81-9.79 7.58-19.38 11.31-28.76 3.74-9.4 7.44-18.58 11.1-27.57 3.68-8.98 7.33-17.77 10.96-26.36 2.16-5.11 4.3-10 6.45-14.98a389.8 389.8 0 01-48.21-10.49 389.8 389.8 0 01-52.11-19.43 389.8 389.8 0 01-48.82-26.66 389.8 389.8 0 01-44.52-33.33 389.8 389.8 0 01-39.33-39.32 389.8 389.8 0 01-33.33-44.53 389.8 389.8 0 01-26.65-48.81 389.8 389.8 0 01-19.44-52.11 389.8 389.8 0 01-11.82-54.35 389.8 389.8 0 01-2.08-29.14z" fill="#fff"/><path d="M252.12 77.58a389.8 389.8 0 002.08 29.14 389.8 389.8 0 0011.82 54.35 389.8 389.8 0 0019.44 52.1A389.8 389.8 0 00312.11 262a389.8 389.8 0 0033.33 44.53 389.8 389.8 0 0039.33 39.32 389.8 389.8 0 0044.52 33.33 389.8 389.8 0 0048.82 26.66 389.8 389.8 0 0052.1 19.43 389.8 389.8 0 0048.22 10.5c1.46-3.4 2.93-6.9 4.4-10.21 3.6-8.2 7.19-16.2 10.78-24 3.59-7.81 7.18-15.43 10.77-22.84 3.6-7.42 7.2-14.65 10.8-21.69a860.32 860.32 0 0110.9-20.53 719.58 719.58 0 0116.58-28.67 582.58 582.58 0 0111.3-17.71 497.11 497.11 0 0111.54-16.6 428.14 428.14 0 0111.84-15.5 374.97 374.97 0 0112.18-14.4 331.82 331.82 0 0112.58-13.33 299.02 299.02 0 0113-12.25 275 275 0 0120.43-16.39 252.32 252.32 0 0121.68-14.03 244.87 244.87 0 0131.13-15.1 256.87 256.87 0 0125.21-8.66 283.38 283.38 0 0117.79-4.53 310.9 310.9 0 0117.53-3.35A490 490 0 00500 10a490 490 0 00-247.88 67.58z" fill="#fff430"/></svg>